PathFileType	4	(X/Y/Z)	E:\Qualisys_Data\Carbon_Farble_Plate\Data\Amateur_Runner\S14\T2\S14T2V23_c3d.trc
DataRate	CameraRate	NumFrames	NumMarkers	Units	OrigDataRate	OrigDataStartFrame	OrigNumFrames
200.000000	200.000000	4	39	mm	200.000000	123	330
Frame#	Time	LSHO			RSHO			LICST			RICST			LASIS			LHEEL			RASIS			LTROC			RTROC			SACR			LTH1			LSK4			LTH2			LTH3			RHM5			LSK2			LTH4			RTH1			LTOE			RTH2			RTH3			RTH4			LLEP			RLEP			LSK1			LSK3			RSK1			LHM5			RSK2			LFT1			RSK3			RSK4			LLME			RLME			RTOE			RHEEL			RFT1			RFT2			LFT2			
		X1	Y1	Z1	X2	Y2	Z2	X3	Y3	Z3	X4	Y4	Z4	X5	Y5	Z5	X6	Y6	Z6	X7	Y7	Z7	X8	Y8	Z8	X9	Y9	Z9	X10	Y10	Z10	X11	Y11	Z11	X12	Y12	Z12	X13	Y13	Z13	X14	Y14	Z14	X15	Y15	Z15	X16	Y16	Z16	X17	Y17	Z17	X18	Y18	Z18	X19	Y19	Z19	X20	Y20	Z20	X21	Y21	Z21	X22	Y22	Z22	X23	Y23	Z23	X24	Y24	Z24	X25	Y25	Z25	X26	Y26	Z26	X27	Y27	Z27	X28	Y28	Z28	X29	Y29	Z29	X30	Y30	Z30	X31	Y31	Z31	X32	Y32	Z32	X33	Y33	Z33	X34	Y34	Z34	X35	Y35	Z35	X36	Y36	Z36	X37	Y37	Z37	X38	Y38	Z38	X39	Y39	Z39	

124	0.615	-1142.22998046875	1364.277099609375	-579.4617309570312	-1133.321655273438	1383.23828125	-267.5364990234375	-1238.446655273438	943.5526123046876	-529.1480712890625	-1184.847045898438	933.4115600585938	-252.4792022705078	-1194.474365234375	892.65966796875	-512.3268432617188	-1594.537719726562	138.2055969238281	-380.3471069335938	-1164.811157226562	890.5972900390625	-276.9287414550781	-1337.6630859375	837.6298828125	-535.2359619140625	-1293.072631835938	813.3118896484375	-211.6598663330078	-1348.64013671875	953.55859375	-379.2137451171875	-1266.356323242188	600.7545166015625	-541.7155151367188	-1446.787231445312	299.3125	-478.4159240722656	-1337.860961914062	601.1630249023438	-515.4228515625	-1253.123168945312	503.5391235351562	-516.3560791015625	-1384.080078125	182.7221832275391	-246.4059906005859	-1385.6259765625	372.4930419921875	-502.7821960449219	-1330.371215820312	505.6675415039062	-494.4860229492188	-1075.115478515625	661.563232421875	-230.42041015625	-1360.353271484375	61.50011825561523	-428.2754211425781	-1144.070678710938	626.8414916992188	-214.1741027832031	-1030.572143554688	574.586181640625	-257.27587890625	-1103.265258789062	536.1127319335938	-235.6685791015625	-1298.683715820312	430.0787963867188	-504.7351684570312	-1059.195556640625	489.3875427246094	-242.7193298339844	-1319.448608398438	323.5811157226562	-497.0960388183594	-1385.153076171875	247.5057373046875	-473.4199829101562	-1133.202270507812	403.4242248535156	-251.7693023681641	-1432.768676757812	59.78880310058594	-489.9621887207031	-1178.7529296875	475.9759216308594	-241.8148956298828	-1593.223388671875	106.3214874267578	-361.3264465332031	-1224.186401367188	356.2912292480469	-264.9356994628906	-1259.742553710938	426.4853515625	-256.528076171875	-1528.476684570312	145.5597991943359	-448.3112487792969	-1393.106689453125	319.8883361816406	-278.7010803222656	-1338.11181640625	117.0246047973633	-305.8348999023438	-1445.00537109375	355.1498107910156	-333.6670227050781	-1467.259521484375	324.1662902832031	-360.309326171875	-1468.596069335938	342.5372924804688	-307.2243041992188	-1605.043090820312	109.8043823242188	-415.1247863769531
125	0.62	-1118.92236328125	1368.834350585938	-578.346435546875	-1114.89306640625	1387.715087890625	-266.9819946289062	-1216.527221679688	946.9374389648438	-529.6840209960938	-1163.2861328125	938.0488891601562	-254.1240081787109	-1172.281372070312	895.29443359375	-512.851318359375	-1590.519897460938	144.5015258789062	-381.6870422363281	-1142.88037109375	895.1697387695312	-277.9823608398438	-1316.263305664062	840.7571411132812	-535.9638061523438	-1270.029907226562	818.1851806640625	-211.3071136474609	-1326.2861328125	956.862060546875	-380.2028198242188	-1252.532836914062	602.9133911132812	-540.543212890625	-1442.021728515625	304.5596923828125	-478.5705871582031	-1325.55322265625	607.1261596679688	-515.962646484375	-1243.617309570312	505.8477783203125	-516.2059936523438	-1341.528198242188	178.8780212402344	-246.1159057617188	-1382.18798828125	378.6026306152344	-503.37890625	-1321.251831054688	510.3994750976562	-494.8517456054688	-1049.9599609375	670.0637817382812	-230.9846801757812	-1359.511108398438	61.32946395874023	-428.8078918457031	-1117.927734375	634.1726684570312	-214.7874450683594	-1003.428344726562	584.2510986328125	-258.1383361816406	-1075.263549804688	543.768798828125	-236.4717559814453	-1291.685668945312	433.8758239746094	-504.7884826660156	-1029.632446289062	497.9737854003906	-243.3076629638672	-1313.901000976562	327.5877075195312	-497.1513671875	-1380.918334960938	251.764892578125	-474.4896240234375	-1101.286010742188	409.2442932128906	-252.0246124267578	-1431.890014648438	59.93381118774414	-489.9690246582031	-1149.432373046875	480.2524108886719	-243.2065124511719	-1589.564453125	113.2931137084961	-362.4861145019531	-1190.082153320312	358.3819580078125	-265.6534729003906	-1228.349853515625	427.4086303710938	-257.616943359375	-1524.755126953125	149.4383697509766	-449.7953186035156	-1357.070434570312	314.9610290527344	-279.9818725585938	-1292.638793945312	114.2417221069336	-305.9944458007812	-1410.264526367188	347.6924133300781	-334.5682678222656	-1431.654663085938	315.6964416503906	-361.5428771972656	-1433.51513671875	333.8746337890625	-308.3905639648438	-1601.285766601562	115.5519104003906	-415.729736328125
126	0.625	-1096.629150390625	1373.9990234375	-577.8850708007812	-1096.263061523438	1392.44921875	-266.8326110839844	-1194.265747070312	950.071044921875	-530.9851684570312	-1141.48046875	942.84423828125	-255.3085784912109	-1150.2265625	897.943603515625	-513.8590698242188	-1585.815673828125	151.5215148925781	-382.6989440917969	-1120.685302734375	899.9906616210938	-278.9189453125	-1295.39404296875	844.2786254882812	-536.990966796875	-1247.10107421875	823.6837768554688	-211.3649444580078	-1304.61083984375	960.2266235351562	-381.7619018554688	-1237.688232421875	606.0270385742188	-540.9146118164062	-1436.417846679688	310.4207153320312	-479.345947265625	-1311.8564453125	612.3525390625	-516.0065307617188	-1233.355346679688	508.8953857421875	-516.3419799804688	-1298.313720703125	174.8417205810547	-246.7015075683594	-1375.658203125	383.7781372070312	-503.6412353515625	-1311.086303710938	515.7306518554688	-494.6515197753906	-1025.017944335938	678.3257446289062	-231.5918426513672	-1359.019287109375	61.33082962036133	-429.2153625488281	-1092.1279296875	640.839599609375	-215.543212890625	-976.6580810546876	593.6693725585938	-259.0124206542969	-1047.65869140625	551.5872802734375	-237.0606231689453	-1284.312133789062	437.8412780761719	-504.524658203125	-1000.675598144531	506.6947937011719	-244.2939300537109	-1307.81201171875	331.8845825195312	-497.499755859375	-1374.673706054688	256.3189697265625	-474.8536987304688	-1068.485229492188	415.4454650878906	-251.5757598876953	-1430.72412109375	60.80326461791992	-490.4009399414062	-1120.881469726562	483.7697448730469	-244.8493194580078	-1585.651977539062	120.0652694702148	-363.0003356933594	-1155.946411132812	360.669677734375	-266.0924377441406	-1197.277099609375	427.5653991699219	-259.1229248046875	-1520.916381835938	155.3513488769531	-451.3040466308594	-1321.33544921875	309.0899658203125	-281.1433715820312	-1246.345825195312	113.2786254882812	-305.2742919921875	-1375.692504882812	339.2605590820312	-336.4422912597656	-1397.728271484375	306.7487487792969	-361.7142333984375	-1398.781372070312	323.4787292480469	-309.8955383300781	-1597.80126953125	122.4598999023438	-416.9887390136719
127	0.63	-1073.31005859375	1379.17333984375	-576.7406005859375	-1077.695434570312	1397.05810546875	-266.4727478027344	-1170.498657226562	952.7452392578124	-531.43359375	-1119.313598632812	947.65380859375	-256.0542907714844	-1127.852783203125	901.0673217773438	-514.6777954101562	-1580.640991210938	159.0188293457031	-384.2495727539062	-1098.888061523438	905.1207885742188	-279.1838684082031	-1272.855590820312	847.3590087890625	-537.1268310546875	-1224.007690429688	829.5067749023438	-210.8646240234375	-1282.538696289062	963.9762573242188	-383.031494140625	-1223.784301757812	609.3248901367188	-540.590576171875	-1430.280395507812	316.0549011230469	-479.911865234375	-1297.94775390625	617.8599243164062	-515.8179931640625	-1222.662231445312	512.6778564453125	-516.18896484375	-1256.202880859375	170.4406280517578	-247.2777404785156	-1368.515747070312	389.1958312988281	-503.558837890625	-1299.78125	521.3032836914062	-495.0721130371094	-1000.083679199219	686.6076049804688	-232.5139923095703	-1358.408447265625	61.05148315429688	-429.3906860351562	-1066.495971679688	647.7259521484375	-216.4964141845703	-950.3955078125	602.8934326171875	-259.8998718261719	-1019.926818847656	559.7020263671875	-238.1173248291016	-1276.089721679688	442.9789123535156	-504.80224609375	-972.6544799804688	514.9382934570312	-245.2410736083984	-1301.527709960938	336.7534484863281	-498.0465698242188	-1370.180419921875	261.7149047851562	-476.1491394042969	-1037.591796875	421.0558166503906	-251.8943786621094	-1429.12744140625	61.43994140625	-491.5289916992188	-1092.108032226562	487.0530700683594	-245.6461486816406	-1580.819091796875	127.8223266601562	-363.9803466796875	-1122.109741210938	362.24853515625	-267.1884155273438	-1166.402221679688	427.4247436523438	-260.1721496582031	-1515.289428710938	160.7362670898438	-451.7304992675781	-1286.51708984375	301.7811584472656	-284.0519409179688	-1200.187255859375	111.6782302856445	-305.9086608886719	-1341.565673828125	329.7116394042969	-339.0956420898438	-1357.049682617188	297.3212280273438	-364.4330444335938	-1362.974975585938	314.6144104003906	-310.66357421875	-1593.066040039062	129.4808959960938	-417.6731262207031
